<svg width="54" height="50" viewBox="0 0 54 50" fill="none" xmlns="http://www.w3.org/2000/svg">
<g clip-path="url(#clip0_368_3640)">
<path d="M45.0323 36.1436C43.5764 36.1436 42.4561 37.3198 42.4561 38.7198C42.4561 40.1757 43.6323 41.296 45.0323 41.296C46.4882 41.296 47.6084 40.1198 47.6084 38.7198C47.6081 37.3194 46.4323 36.1436 45.0323 36.1436Z" fill="black"/>
<path d="M45.0328 32.0557C40.3289 32.0557 36.4648 35.9198 36.4648 40.6237C36.4648 45.3276 40.3289 49.1917 45.0328 49.1917C49.7367 49.1917 53.6008 45.3276 53.6008 40.6237C53.6008 35.8639 49.7367 32.0557 45.0328 32.0557ZM49.2887 45.7757V44.8796C49.2887 43.5917 48.4489 42.4718 47.2727 42.0796C46.6009 42.5276 45.8168 42.8077 44.9766 42.8077C44.1368 42.8077 43.3528 42.5276 42.6805 42.0796C41.5043 42.4718 40.6645 43.5917 40.6645 44.8796V45.7757C39.1524 44.5437 38.2004 42.6956 38.2004 40.5679C38.2004 36.8718 41.2242 33.848 44.9203 33.848C48.6164 33.848 51.6402 36.8718 51.6402 40.5679C51.7527 42.6956 50.8008 44.5437 49.2886 45.7757H49.2887Z" fill="black"/>
<path d="M8.96878 36.1436C7.51288 36.1436 6.39258 37.3198 6.39258 38.7198C6.39258 40.1757 7.56878 41.296 8.96878 41.296C10.4247 41.296 11.545 40.1198 11.545 38.7198C11.545 37.3194 10.4247 36.1436 8.96878 36.1436Z" fill="black"/>
<path d="M8.96839 32.0557C4.26449 32.0557 0.400391 35.9198 0.400391 40.6237C0.400391 45.3276 4.26449 49.1917 8.96839 49.1917C13.6723 49.1917 17.5364 45.3276 17.5364 40.6237C17.5364 35.8639 13.6723 32.0557 8.96839 32.0557ZM13.2805 45.7757V44.8796C13.2805 43.5917 12.4407 42.4718 11.2645 42.0796C10.5926 42.5276 9.80859 42.8077 8.96839 42.8077C8.12855 42.8077 7.34459 42.5276 6.67229 42.0796C5.49609 42.4718 4.65629 43.5917 4.65629 44.8796V45.7757C3.14419 44.5437 2.19219 42.6956 2.19219 40.5679C2.19219 36.8718 5.21599 33.848 8.91209 33.848C12.6082 33.848 15.632 36.8718 15.632 40.5679C15.6882 42.6956 14.7363 44.5437 13.2804 45.7757H13.2805Z" fill="black"/>
<path d="M27 10.1592C28.4559 10.1592 29.5762 8.98304 29.5762 7.58304C29.5762 6.12714 28.4 5.00684 27 5.00684C25.5441 5.00684 24.4238 6.18304 24.4238 7.58304C24.4238 8.98304 25.5441 10.1592 27 10.1592Z" fill="black"/>
<path d="M27.0006 17.9436C31.7045 17.9436 35.5686 14.0795 35.5686 9.37562C35.5686 4.67172 31.7045 0.807617 27.0006 0.807617C22.2967 0.807617 18.4326 4.67172 18.4326 9.37562C18.4326 14.1354 22.2967 17.9436 27.0006 17.9436ZM27.0006 2.65562C30.6967 2.65562 33.7205 5.67942 33.7205 9.37552C33.7205 11.4474 32.7686 13.3517 31.2564 14.5833V13.6872C31.2564 12.3993 30.4166 11.2794 29.2404 10.8872C28.5685 11.3353 27.7845 11.6153 26.9443 11.6153C26.1045 11.6153 25.3205 11.3353 24.6482 10.8872C23.472 11.2794 22.6322 12.3993 22.6322 13.6872V14.5833C21.1201 13.3513 20.1681 11.5032 20.1681 9.37552C20.2806 5.67982 23.3044 2.65562 27.0005 2.65562H27.0006Z" fill="black"/>
<path d="M17.8158 16.04C17.0318 15.5919 16.0799 15.872 15.6318 16.6001C15.1837 17.3841 15.4638 18.336 16.1919 18.7841C16.9759 19.2322 17.9278 18.9521 18.3759 18.224C18.8798 17.44 18.5998 16.4881 17.8158 16.04Z" fill="black"/>
<path d="M10.1443 29.3671C10.9283 29.8152 11.8802 29.5351 12.3283 28.807C12.7764 28.023 12.4963 27.0711 11.7682 26.623C10.9842 26.1749 10.0323 26.455 9.58417 27.1831C9.08026 27.9671 9.36034 28.919 10.1443 29.3671Z" fill="black"/>
<path d="M13.1682 24.1035C13.9522 24.5515 14.9041 24.2714 15.3522 23.5433C15.8002 22.7593 15.5201 21.8074 14.792 21.3593C14.0639 20.9113 13.0561 21.1913 12.608 21.9195C12.1604 22.6476 12.3842 23.6554 13.1682 24.1035Z" fill="black"/>
<path d="M41.6728 28.752C42.1208 29.5359 43.0728 29.7598 43.8568 29.3121C44.6408 28.8641 44.8646 27.9121 44.417 27.1281C43.9689 26.3441 43.017 26.1203 42.2329 26.568C41.5048 27.016 41.2247 27.968 41.6728 28.752Z" fill="black"/>
<path d="M37.752 18.7838C38.536 18.3357 38.7598 17.3838 38.3121 16.5998C37.8641 15.8158 36.9121 15.592 36.1281 16.0396C35.3441 16.4877 35.1203 17.4396 35.568 18.2236C36.016 18.9518 37.0239 19.2318 37.752 18.7838Z" fill="black"/>
<path d="M38.6483 23.4873C39.0964 24.2713 40.0483 24.4951 40.8323 24.0475C41.6163 23.5994 41.8401 22.6475 41.3925 21.8635C40.9444 21.0795 39.9925 20.8557 39.2085 21.3033C38.4241 21.7514 38.2003 22.7033 38.6483 23.4873Z" fill="black"/>
<path d="M33.1043 43.5352C32.2082 43.5352 31.4805 44.2633 31.4805 45.1589C31.4805 46.055 32.2086 46.7827 33.1043 46.7827C34.0004 46.7827 34.7281 46.0546 34.7281 45.1589C34.7285 44.207 34.0003 43.5352 33.1043 43.5352Z" fill="black"/>
<path d="M20.8963 43.5352C20.0002 43.5352 19.2725 44.2633 19.2725 45.1589C19.2725 46.055 20.0006 46.7827 20.8963 46.7827C21.7924 46.7827 22.5201 46.0546 22.5201 45.1589C22.5201 44.207 21.7923 43.5352 20.8963 43.5352Z" fill="black"/>
<path d="M27.0007 43.5352C26.1047 43.5352 25.377 44.2633 25.377 45.1589C25.377 46.055 26.1051 46.7827 27.0007 46.7827C27.8968 46.7827 28.6245 46.0546 28.6245 45.1589C28.6245 44.207 27.8968 43.5352 27.0007 43.5352Z" fill="black"/>
<path d="M27.0008 21.6953C22.2969 21.6953 18.5449 25.5031 18.5449 30.1512C18.5449 34.7993 22.2969 38.6633 27.0008 38.6633C31.7047 38.6633 35.4567 34.8555 35.4567 30.2074C35.4567 25.5593 31.7047 21.6953 27.0008 21.6953ZM31.3129 29.4793L29.6328 30.9914C29.5207 31.0473 29.5207 31.2152 29.5207 31.3273L29.9688 33.5113C30.0809 34.0153 29.5207 34.4074 29.0727 34.1274L27.1125 33.0075C27.0004 32.9516 26.8887 32.9516 26.7765 33.0075L24.8163 34.1274C24.3683 34.4075 23.8644 34.0153 23.9202 33.5113L24.3683 31.3273C24.3683 31.2152 24.3683 31.1035 24.2562 30.9914L22.5761 29.4793C22.1839 29.1434 22.4081 28.5274 22.912 28.4715L25.1518 28.2477C25.2639 28.2477 25.3757 28.1356 25.4319 28.0238L26.3839 25.952C26.6077 25.5039 27.28 25.5039 27.448 25.952L28.3999 28.0238C28.4558 28.136 28.5679 28.1918 28.68 28.2477L30.9198 28.4715C31.4807 28.5274 31.7046 29.1434 31.3128 29.4793H31.3129Z" fill="black"/>
</g>
<defs>
<clipPath id="clip0_368_3640">
<rect width="54" height="50" fill="white"/>
</clipPath>
</defs>
</svg>
