<svg width="54" height="35" viewBox="0 0 54 35" fill="none" xmlns="http://www.w3.org/2000/svg">
<g clip-path="url(#clip0_368_3668)">
<path d="M16.7372 6.68581C16.7372 10.2655 13.8686 13.1678 10.33 13.1678C6.79146 13.1678 3.92285 10.2655 3.92285 6.68581C3.92285 3.10567 6.79146 0.203369 10.33 0.203369C13.8686 0.203369 16.7372 3.10567 16.7372 6.68581Z" fill="black"/>
<path d="M19.4017 18.7901C18.4944 16.7249 16.6802 15.2335 14.5255 14.7169L11.6905 21.9449L11.0668 16.7245H11.4639C11.7475 16.7245 11.9175 16.4952 11.9175 16.2656V14.8887C11.9175 14.6018 11.6909 14.4297 11.4639 14.4297H9.2526C8.96902 14.4297 8.79895 14.659 8.79895 14.8887V16.2656C8.79895 16.5525 9.02557 16.7245 9.2526 16.7245H9.64969L9.02597 21.9449L6.07706 14.7169C3.24206 15.4052 0.974265 17.8145 0.63366 20.9124L0.0664974 25.4441C-0.103572 26.9356 0.973789 28.3124 2.4479 28.4273C2.67453 28.4273 2.95811 28.4845 3.18512 28.4845C6.81392 28.7714 10.4427 28.8286 14.0715 28.6566L14.3551 26.3621C14.8091 23.0925 16.7368 20.3386 19.4018 18.79L19.4017 18.7901Z" fill="black"/>
<path d="M50.0761 6.68581C50.0761 10.2655 47.2075 13.1678 43.6689 13.1678C40.1303 13.1678 37.2617 10.2655 37.2617 6.68581C37.2617 3.10567 40.1303 0.203369 43.6689 0.203369C47.2075 0.203369 50.0761 3.10567 50.0761 6.68581Z" fill="black"/>
<path d="M53.3652 20.9124C53.025 17.8149 50.7568 15.4051 47.8653 14.7169L45.0303 21.9449L44.4066 16.7245H44.8037C45.0872 16.7245 45.2573 16.4952 45.2573 16.2655V14.8887C45.2573 14.6018 45.0307 14.4297 44.8037 14.4297H42.5924C42.3088 14.4297 42.1387 14.659 42.1387 14.8887V16.2655C42.1387 16.5525 42.3653 16.7245 42.5924 16.7245H42.9895L42.3657 21.9449L39.4738 14.7169C37.3191 15.2331 35.505 16.7821 34.5977 18.7901C37.2626 20.3391 39.1902 23.0925 39.5873 26.3626L39.8709 28.657C43.7833 28.8291 47.6956 28.7719 51.5511 28.4277C53.0252 28.3129 54.1595 26.9936 53.9325 25.4446L53.3652 20.9124Z" fill="black"/>
<path d="M31.4224 20.1093L28.4173 27.739L27.737 22.2316H28.1906C28.4742 22.2316 28.6443 22.0023 28.6443 21.7727V20.2812C28.6443 19.9943 28.4177 19.8223 28.1906 19.8223H25.8092C25.5257 19.8223 25.3556 20.0516 25.3556 20.2812V21.7727C25.3556 22.0596 25.5822 22.2316 25.8092 22.2316H26.2629L25.5826 27.739L22.5775 20.1093C19.5159 20.8552 17.1911 23.3794 16.794 26.649L16.2268 31.4676C16.0568 33.0739 17.1907 34.508 18.7782 34.6229C19.0618 34.6229 19.3454 34.6801 19.6286 34.6801C24.845 35.0818 30.1181 35.0818 35.3345 34.6229C36.9221 34.508 38.056 33.0739 37.8859 31.4676L37.3187 26.649C36.8655 23.379 34.4841 20.7976 31.4221 20.1093H31.4224Z" fill="black"/>
<path d="M33.7468 11.6194C33.7468 15.3892 30.7259 18.4456 26.9994 18.4456C23.2729 18.4456 20.252 15.3892 20.252 11.6194C20.252 7.84909 23.2729 4.79272 26.9994 4.79272C30.7259 4.79272 33.7468 7.84909 33.7468 11.6194Z" fill="black"/>
</g>
<defs>
<clipPath id="clip0_368_3668">
<rect width="54" height="35" fill="white"/>
</clipPath>
</defs>
</svg>
