<svg width="55" height="55" viewBox="0 0 55 55" fill="none" xmlns="http://www.w3.org/2000/svg">
<g clip-path="url(#clip0_368_3658)">
<path d="M15.9424 33.0225C14.1472 33.0225 12.6807 34.4856 12.6807 36.3004C12.6807 38.1046 14.1472 39.5784 15.9424 39.5784C17.7482 39.5784 19.2147 38.1046 19.2147 36.3004C19.2147 34.4856 17.7482 33.0225 15.9424 33.0225Z" fill="black"/>
<path d="M28.5626 39.8312C28.5957 39.2699 28.5957 38.7092 28.5519 38.1479L31.3208 35.6397C31.6602 35.3206 31.7697 34.8259 31.5832 34.3855L30.1713 31.0522C29.9853 30.6231 29.5476 30.3707 29.088 30.3927L25.3667 30.6456C25.0054 30.2391 24.6115 29.8427 24.1845 29.4796L24.3598 25.7397C24.3817 25.2778 24.1081 24.8487 23.6811 24.673L20.3537 23.3093C19.916 23.1337 19.4233 23.2545 19.117 23.6063L16.6437 26.4336C16.0964 26.4003 15.5379 26.4116 14.9907 26.4444L12.4949 23.6724C12.1774 23.3206 11.6852 23.2104 11.247 23.3974L7.9196 24.8271C7.49258 25.0027 7.23017 25.4432 7.26277 25.9158L7.51448 29.6562C7.10938 30.0193 6.72673 30.4264 6.36545 30.8443L2.63297 30.6687C2.17335 30.6246 1.73565 30.9104 1.56036 31.3502L0.214122 34.705C0.0388336 35.1454 0.159609 35.6401 0.520357 35.9484L3.33316 38.4014C3.30056 38.9514 3.30056 39.5126 3.34438 40.0734L0.575498 42.6031C0.225441 42.9114 0.115878 43.4173 0.301866 43.8465L1.72448 47.1798C1.89977 47.6089 2.33748 47.8839 2.80779 47.8506L6.51837 47.5869C6.87965 47.9935 7.27353 48.3678 7.71124 48.7417L7.52526 52.4928C7.50334 52.9654 7.77697 53.3946 8.21469 53.5707L11.5527 54.9237C11.6853 54.9774 11.8274 54.9995 11.9589 54.9995C12.2764 54.9995 12.5719 54.8679 12.791 54.6256L15.2425 51.8096C15.7897 51.8316 16.3482 51.8316 16.9062 51.7876L19.4014 54.5709C19.7189 54.9119 20.2223 55.0215 20.6493 54.8459L23.9767 53.4162C24.4037 53.2292 24.6773 52.7893 24.6442 52.3274L24.3706 48.5876C24.7976 48.2132 25.1802 47.8174 25.5308 47.3995L29.2633 47.5746C29.7229 47.5966 30.1606 47.3216 30.3359 46.8817L31.6715 43.527C31.8468 43.0978 31.726 42.6026 31.3759 42.2954L28.5626 39.8312ZM15.943 48.0039C15.5079 48.0039 15.0836 47.9615 14.6651 47.9002C15.0852 47.9604 15.5101 48.0039 15.943 48.0039C16.3775 48.0039 16.804 47.9604 17.2262 47.8997C16.8061 47.9615 16.3796 48.0039 15.943 48.0039ZM21.4081 46.0961C21.6913 45.8399 21.826 45.4569 21.7549 45.0778C21.2296 42.273 18.7888 40.2379 15.943 40.2379C13.1083 40.2379 10.6675 42.273 10.1423 45.0778C10.0707 45.4596 10.207 45.8458 10.4945 46.102C8.43266 44.4746 7.09925 41.9523 7.09925 39.1158C7.09925 34.2205 11.0722 30.2277 15.9432 30.2277C20.8248 30.2277 24.7978 34.2211 24.7978 39.1158C24.7978 41.949 23.4681 44.4681 21.4084 46.0961H21.4081Z" fill="black"/>
<path d="M54.1303 12.9471L50.759 11.7703C50.5949 11.2751 50.3977 10.7911 50.1679 10.318L51.722 7.0953C51.9299 6.67689 51.8423 6.17093 51.5141 5.84115L49.0626 3.37743C48.7345 3.04765 48.2305 2.95956 47.8147 3.1685L44.5968 4.73036C44.126 4.4994 43.6445 4.30121 43.1522 4.13686L41.9919 0.748726C41.8385 0.297013 41.4227 0 40.9631 0H37.5043C37.0335 0 36.6177 0.297027 36.4643 0.74819L35.304 4.13632C34.8113 4.30121 34.3297 4.4994 33.8702 4.72982L30.6523 3.16796C30.2253 2.95903 29.733 3.04711 29.4044 3.3769L26.9529 5.84061C26.6248 6.17039 26.5371 6.67689 26.7338 7.09476L28.2991 10.3175C28.0586 10.7901 27.8614 11.2741 27.6973 11.7697L24.326 12.9466C23.8883 13.1007 23.5928 13.5186 23.5928 13.9805V17.4561C23.5928 17.918 23.8883 18.3358 24.326 18.49L27.6973 19.6673C27.8614 20.1733 28.0693 20.6578 28.2991 21.1196L26.7338 24.3423C26.5366 24.7607 26.6135 25.2667 26.9529 25.5965L29.4044 28.0607C29.7325 28.3905 30.2365 28.4786 30.6523 28.2697L33.8594 26.7078C34.319 26.9388 34.8005 27.137 35.2932 27.3013L36.4642 30.6894C36.6175 31.1401 37.0333 31.4371 37.5042 31.4371H40.963C41.4226 31.4371 41.8384 31.1401 41.9918 30.6894L43.1628 27.3013C43.6555 27.1364 44.137 26.9382 44.6074 26.7078L47.8145 28.2697C48.2303 28.4786 48.7337 28.3905 49.0624 28.0607L51.5139 25.5965C51.842 25.2667 51.9297 24.7607 51.7218 24.3423L50.1677 21.1196C50.3975 20.6577 50.5947 20.1738 50.7694 19.6673L54.1295 18.49C54.5784 18.3358 54.8628 17.918 54.8628 17.4561V13.9805C54.8638 13.5191 54.5683 13.1012 54.13 12.9471H54.1303ZM44.5094 22.4512C44.783 22.1982 44.9145 21.8131 44.8488 21.4393C44.3453 18.722 41.981 16.753 39.234 16.753C36.4758 16.753 34.1115 18.722 33.608 21.4393C33.5315 21.8239 33.6844 22.1982 33.9692 22.4512C31.9773 20.8781 30.6969 18.4471 30.6969 15.7191C30.6969 10.9894 34.5277 7.13938 39.2339 7.13938C43.9401 7.13938 47.771 10.9894 47.771 15.7191C47.7715 18.4471 46.4904 20.8781 44.5093 22.4512H44.5094Z" fill="black"/>
<path d="M42.408 13.0131C42.408 14.7732 40.9854 16.2029 39.234 16.2029C37.4827 16.2029 36.0488 14.7732 36.0488 13.0131C36.0488 11.2422 37.4827 9.8125 39.234 9.8125C40.9854 9.81196 42.408 11.2422 42.408 13.0131Z" fill="black"/>
</g>
<defs>
<clipPath id="clip0_368_3658">
<rect width="55" height="55" fill="white"/>
</clipPath>
</defs>
</svg>
