<svg width="51" height="32" viewBox="0 0 51 32" fill="none" xmlns="http://www.w3.org/2000/svg">
<g clip-path="url(#clip0_368_3676)">
<path d="M16.5776 0.029541C7.44351 0.029541 0 7.19 0 15.9908C0 24.7921 7.44372 31.9704 16.5776 31.9704C25.7205 31.9704 33.1458 24.8008 33.1458 15.9908C33.1458 7.18032 25.7204 0.029541 16.5776 0.029541ZM13.6056 14.4927H19.5497C22.2126 14.4927 24.3939 16.597 24.3939 19.2009C24.3939 21.7956 22.2126 23.9091 19.5497 23.9091H18.1045V26.0046C18.1045 26.8338 17.4228 27.5026 16.5777 27.5026C15.7325 27.5026 15.0509 26.8338 15.0509 26.0046V23.9091H10.2883C9.44313 23.9091 8.76151 23.2403 8.76151 22.4111C8.76151 21.5819 9.44315 20.9131 10.2883 20.9131H19.5497C20.5405 20.9131 21.3402 20.1464 21.3402 19.2009C21.3402 18.2558 20.5405 17.4887 19.5497 17.4887H13.6056C10.9427 17.4887 8.76141 15.3844 8.76141 12.7985C8.76141 10.2037 10.9427 8.09028 13.6056 8.09028H15.0508V5.98602C15.0508 5.15681 15.7325 4.48804 16.5776 4.48804C17.4228 4.48804 18.1044 5.15683 18.1044 5.98602V8.09028H22.867C23.7032 8.09028 24.3938 8.75907 24.3938 9.58827C24.3938 10.4175 23.7032 11.0863 22.867 11.0863L13.6056 11.0866C12.6148 11.0866 11.8151 11.8446 11.8151 12.7989C11.8151 13.7348 12.6241 14.4927 13.6056 14.4927V14.4927Z" fill="black"/>
<path d="M38.9625 11.3722C45.9973 11.3722 50.8961 8.70577 50.8961 6.3073C50.8961 3.91759 45.7976 1.24243 38.9625 1.24243C35.8269 1.24243 32.8643 1.80413 30.6376 2.77629C32.937 5.05889 34.6455 7.92157 35.5272 11.1052C36.6178 11.2744 37.7539 11.3723 38.9625 11.3723V11.3722Z" fill="black"/>
<path d="M34.8462 22.9198C34.0919 24.7565 33.065 26.4687 31.7926 27.9759C33.8558 28.6713 36.3735 29.0639 38.9726 29.0639C45.8073 29.0639 50.9062 26.3887 50.9062 23.999V20.1379C48.2162 22.0372 43.9623 23.2144 38.9726 23.2144C37.5452 23.2053 36.1547 23.1161 34.8462 22.9198V22.9198Z" fill="black"/>
<path d="M36.1186 14.2165C36.1823 14.8049 36.2095 15.3937 36.2095 15.9912C36.2095 17.3733 36.0549 18.711 35.764 20.0039C36.7909 20.1377 37.8633 20.2002 38.9722 20.2002C45.8069 20.2002 50.9058 17.5338 50.9058 15.1353V11.283C48.2158 13.1735 43.9619 14.3594 38.9722 14.3594C37.9818 14.3682 37.0364 14.3057 36.1186 14.2165L36.1186 14.2165Z" fill="black"/>
</g>
<defs>
<clipPath id="clip0_368_3676">
<rect width="51" height="32" fill="white"/>
</clipPath>
</defs>
</svg>
