<svg width="66" height="44" viewBox="0 0 66 44" fill="none" xmlns="http://www.w3.org/2000/svg">
<g clip-path="url(#clip0_368_3664)">
<path d="M44.4221 0.0357739C36.5064 0.0357739 29.5951 4.44801 25.8684 10.9821H20.0865C19.5024 10.9821 19.0288 11.4664 19.0288 12.0636C19.0288 12.6608 19.5024 13.1451 20.0865 13.1451H24.7795C24.1552 14.576 23.684 16.0718 23.3743 17.6061H13.7762C13.1921 17.6061 12.7185 18.0904 12.7185 18.6876C12.7185 19.2848 13.1921 19.769 13.7762 19.769H23.0518C22.904 21.2522 22.904 22.7469 23.0518 24.2301H7.46559C6.88151 24.2301 6.4079 24.7143 6.4079 25.3116C6.4079 25.9088 6.88151 26.393 7.46559 26.393H23.3745C23.6843 27.9278 24.156 29.4239 24.7802 30.8551H1.15437C0.570284 30.8551 0.0966797 31.3393 0.0966797 31.9365C0.0966797 32.5337 0.570284 33.018 1.15437 33.018H25.8693C29.5958 39.5516 36.5072 43.9635 44.4219 43.9635C56.2666 43.9635 65.9033 34.1111 65.9033 21.9993C65.9033 9.88757 56.2669 0.0351562 44.4219 0.0351562L44.4221 0.0357739ZM53.6604 23.0814H44.4221C44.1416 23.0814 43.8725 22.9675 43.6742 22.7647C43.4758 22.5619 43.3644 22.2867 43.3644 21.9999V6.39847C43.3644 5.80126 43.838 5.31701 44.4221 5.31701C45.0062 5.31701 45.4798 5.80126 45.4798 6.39847V20.9185H53.6604C54.2445 20.9185 54.7181 21.4027 54.7181 21.9999C54.7181 22.5971 54.2445 23.0814 53.6604 23.0814Z" fill="black"/>
</g>
<defs>
<clipPath id="clip0_368_3664">
<rect width="66" height="44" fill="white"/>
</clipPath>
</defs>
</svg>
