<svg width="56" height="57" viewBox="0 0 56 57" fill="none" xmlns="http://www.w3.org/2000/svg">
<g filter="url(#filter0_d_368_3525)">
<path d="M24.6374 16.2626L36.1556 26.242C38.6261 28.3825 38.8965 32.1229 36.7595 34.5964L26.7963 46.1286C24.6593 48.6021 20.9241 48.8721 18.4536 46.7317L6.93533 36.7523C4.46479 34.6118 4.19442 30.8714 6.33143 28.3979L16.2947 16.8657C18.4317 14.3922 22.1668 14.1222 24.6374 16.2626Z" fill="url(#paint0_linear_368_3525)" fill-opacity="0.1"/>
<g clip-path="url(#clip0_368_3525)">
<path d="M20.8094 32.6733C20.051 32.6733 19.3647 32.9854 18.8701 33.4893C18.3756 33.9885 18.0732 34.6846 18.0732 35.443C18.0732 36.2014 18.3756 36.8975 18.8701 37.3967C19.3596 37.8959 20.051 38.2126 20.8094 38.2126C21.5678 38.2126 22.2541 37.9006 22.7487 37.3967C23.2432 36.8974 23.5456 36.2014 23.5456 35.443C23.5456 34.6846 23.2432 33.9885 22.7487 33.4893C22.2542 32.9854 21.5678 32.6733 20.8094 32.6733ZM21.7215 36.3838C21.4814 36.6239 21.1647 36.7679 20.8094 36.7679C20.4541 36.7679 20.1374 36.6239 19.8973 36.3838C19.6623 36.1438 19.5133 35.8126 19.5133 35.4429C19.5133 35.0686 19.6619 34.7422 19.8973 34.5021C20.1374 34.262 20.4541 34.118 20.8094 34.118C21.1647 34.118 21.4814 34.262 21.7215 34.5021C21.9565 34.7421 22.1055 35.0733 22.1055 35.4429C22.1052 35.8126 21.9565 36.139 21.7215 36.3838Z" fill="#E2E2E2"/>
<path d="M48.3281 15.5278C48.5297 14.8079 48.6402 14.0496 48.6402 13.2671C48.6402 10.9535 47.7137 8.84647 46.2161 7.3247C44.7184 5.80293 42.6402 4.8527 40.3457 4.85741C39.3807 4.85741 38.4547 5.03018 37.5951 5.33755C35.8286 2.68307 32.8336 0.92627 29.4255 0.92627C26.8193 0.92627 24.443 1.95818 22.6862 3.62858C21.1789 5.06361 20.1232 6.97409 19.7341 9.12466C19.3454 9.06707 18.9517 9.03359 18.5438 9.03359C16.2637 9.03359 14.1901 9.97448 12.7022 11.4912C11.2193 12.9982 10.2979 15.0959 10.2979 17.3998C10.2979 20.3181 11.7761 22.8959 14.0177 24.3936C14.013 24.5041 14.0033 24.6142 14.0033 24.7297C14.0033 26.5489 14.5457 28.2721 15.592 29.5826C16.1153 30.2355 16.7729 30.7826 17.536 31.162C18.3041 31.5413 19.1776 31.7523 20.1185 31.7523C20.4737 31.7523 20.8193 31.6994 21.1601 31.6324C21.5632 31.546 21.9519 31.4355 22.2834 31.3301C22.4371 31.6083 22.6386 31.9348 22.8881 32.271C23.2336 32.7317 23.6799 33.2118 24.2561 33.6196C24.8274 34.0227 25.5425 34.3445 26.3682 34.45C26.7282 34.4931 27.0787 34.5173 27.4145 34.5173C29.3297 34.5173 30.8371 33.8453 31.8449 33.183C32.2531 32.9142 32.5842 32.6503 32.8337 32.42C33.0305 32.5305 33.2609 32.6456 33.5298 32.7655C34.3936 33.1495 35.6177 33.5336 37.0769 33.5336C37.4177 33.5336 37.773 33.5145 38.1329 33.4663C39.8944 33.2359 41.6897 32.4725 43.101 31.2056C43.8064 30.5721 44.4114 29.804 44.8434 28.9161C45.1313 28.3258 45.3329 27.6776 45.448 26.9865C45.5488 26.9911 45.6449 27.0055 45.7457 27.0055C47.392 27.0055 48.8897 26.3238 49.9648 25.2296C51.0399 24.1401 51.7025 22.628 51.7025 20.9673C51.7025 18.571 50.3297 16.5021 48.3282 15.5278L48.3281 15.5278ZM48.597 23.8799C47.8627 24.6239 46.8593 25.0799 45.7507 25.0799C45.4386 25.0799 45.1316 25.0414 44.8242 24.9647L43.6577 24.6865L43.6386 25.8865C43.6242 26.7024 43.4417 27.4226 43.125 28.0705C42.6546 29.0354 41.8771 29.8417 40.9456 30.4417C40.0145 31.0417 38.925 31.4257 37.8927 31.56C37.6145 31.5985 37.3456 31.6129 37.0815 31.6129C35.9631 31.6129 34.9935 31.3152 34.3119 31.0082C33.971 30.8595 33.7022 30.7058 33.52 30.5954C33.4289 30.5425 33.3663 30.4946 33.3231 30.4658L33.2799 30.437L33.2753 30.4323L32.536 29.8708L31.9551 30.5907C31.9407 30.6051 31.5037 31.1234 30.7215 31.6179C29.9391 32.1124 28.8305 32.5875 27.4192 32.5875C27.1601 32.5875 26.8912 32.5731 26.613 32.5346C26.1379 32.477 25.7348 32.2945 25.3698 32.04C24.8227 31.6607 24.3811 31.0895 24.0978 30.6096C23.9538 30.3696 23.8483 30.1583 23.781 30.0096C23.7476 29.9376 23.7234 29.8801 23.7091 29.8416L23.6947 29.8031V29.7984L23.3585 28.8673L22.4367 29.2369L22.4223 29.2416C22.3456 29.2704 21.9472 29.4241 21.4718 29.568C21.2317 29.64 20.9772 29.7073 20.7375 29.7505C20.4974 29.7984 20.2768 29.8225 20.1328 29.8225C19.4705 29.8225 18.904 29.6785 18.4001 29.4338C17.6514 29.0641 17.0417 28.44 16.6098 27.6241C16.1778 26.8081 15.9331 25.8 15.9331 24.7249C15.9331 24.4992 15.9522 24.2642 15.9907 24.0194L16.0818 23.3715L15.5106 23.0498C13.5569 21.9506 12.2273 19.8385 12.2273 17.3953C12.2273 15.605 12.9378 13.9969 14.0896 12.8257C15.2417 11.6592 16.8161 10.944 18.5631 10.9393C19.1631 10.9393 19.744 11.0304 20.3008 11.1938L21.4432 11.5249L21.5249 10.3393C21.6735 8.23699 22.605 6.35993 24.0257 5.00659C25.4463 3.65291 27.3424 2.83228 29.4401 2.83228C32.421 2.83228 35.0175 4.50268 36.381 6.98908L36.8179 7.79064L37.6386 7.39221C38.4689 6.98908 39.3857 6.76342 40.3603 6.76342C42.1171 6.76342 43.7058 7.48328 44.8626 8.6595C46.0194 9.83541 46.7346 11.4533 46.7346 13.2579C46.7346 14.1314 46.5619 14.9618 46.2545 15.7202L45.8561 16.7042L46.8736 17.0019C48.5487 17.4914 49.7969 19.0708 49.7919 20.9571C49.7825 22.1086 49.3312 23.1358 48.597 23.8798L48.597 23.8799Z" fill="#E2E2E2"/>
<path d="M18.5013 39.009C18.5013 39.6188 18.0135 40.113 17.4118 40.113C16.8098 40.113 16.3223 39.6188 16.3223 39.009C16.3223 38.3993 16.8098 37.9048 17.4118 37.9048C18.0135 37.9048 18.5013 38.3993 18.5013 39.009Z" fill="#E2E2E2"/>
</g>
</g>
<defs>
<filter id="filter0_d_368_3525" x="0.890022" y="0" width="55.11" height="56.1758" filterUnits="userSpaceOnUse" color-interpolation-filters="sRGB">
<feFlood flood-opacity="0" result="BackgroundImageFix"/>
<feColorMatrix in="SourceAlpha" type="matrix" values="0 0 0 0 0 0 0 0 0 0 0 0 0 0 0 0 0 0 127 0" result="hardAlpha"/>
<feOffset dy="4"/>
<feGaussianBlur stdDeviation="2"/>
<feComposite in2="hardAlpha" operator="out"/>
<feColorMatrix type="matrix" values="0 0 0 0 0 0 0 0 0 0 0 0 0 0 0 0 0 0 0.25 0"/>
<feBlend mode="normal" in2="BackgroundImageFix" result="effect1_dropShadow_368_3525"/>
<feBlend mode="normal" in="SourceGraphic" in2="effect1_dropShadow_368_3525" result="shape"/>
</filter>
<linearGradient id="paint0_linear_368_3525" x1="20.0502" y1="10.7807" x2="22.4595" y2="43.5986" gradientUnits="userSpaceOnUse">
<stop stop-color="#EDD600"/>
<stop offset="0.34375" stop-color="#FFE703"/>
<stop offset="0.557292" stop-color="#FFBB97"/>
<stop offset="0.760417" stop-color="#DE77B5"/>
<stop offset="1" stop-color="#DD1C90"/>
</linearGradient>
<clipPath id="clip0_368_3525">
<rect width="42" height="41" fill="white" transform="translate(10)"/>
</clipPath>
</defs>
</svg>
