<svg width="26" height="26" viewBox="0 0 26 26" fill="none" xmlns="http://www.w3.org/2000/svg">
<g clip-path="url(#clip0_3877_2091)">
<path d="M4.74744 0C2.11757 0 0 2.11757 0 4.74744V21.2526C0 23.8825 2.11757 26 4.74744 26H13.6931V15.8356H11.0053V12.1761H13.6931V9.04964C13.6931 6.59329 15.2811 4.33794 18.9394 4.33794C20.4206 4.33794 21.5158 4.48014 21.5158 4.48014L21.4297 7.89753C21.4297 7.89753 20.3127 7.88697 19.0938 7.88697C17.7745 7.88697 17.563 8.4948 17.563 9.50386V12.1762H21.5345L21.3614 15.8357H17.563V26.0001H21.2526C23.8824 26.0001 26 23.8825 26 21.2526V4.74747C26 2.1176 23.8824 2.6e-05 21.2526 2.6e-05H4.74742L4.74744 0Z" fill="#8F99A1"/>
</g>
<defs>
<clipPath id="clip0_3877_2091">
<rect width="26" height="26" fill="white"/>
</clipPath>
</defs>
</svg>
