<svg width="54" height="54" viewBox="0 0 54 54" fill="none" xmlns="http://www.w3.org/2000/svg">
<rect width="54" height="54" rx="14" fill="#EEF5FF"/>
<path d="M26.6247 36.24C25.8887 36.24 25.1527 36.16 24.4167 36C23.6967 35.84 23.0167 35.616 22.3767 35.328C21.7527 35.04 21.2167 34.696 20.7687 34.296L21.7767 31.968C22.5287 32.528 23.2967 32.952 24.0807 33.24C24.8807 33.512 25.7127 33.648 26.5767 33.648C27.6167 33.648 28.4247 33.392 29.0007 32.88C29.5927 32.352 29.8887 31.648 29.8887 30.768C29.8887 29.872 29.6087 29.152 29.0487 28.608C28.4887 28.048 27.7207 27.768 26.7447 27.768C26.0567 27.768 25.4247 27.904 24.8487 28.176C24.2887 28.432 23.7847 28.832 23.3367 29.376H21.2967V19.08H31.8087V21.624H24.2247V27H23.4807C23.8967 26.44 24.4487 26.008 25.1367 25.704C25.8407 25.4 26.6247 25.248 27.4887 25.248C28.5767 25.248 29.5207 25.472 30.3207 25.92C31.1207 26.368 31.7447 27 32.1927 27.816C32.6407 28.616 32.8647 29.56 32.8647 30.648C32.8647 31.752 32.6087 32.728 32.0967 33.576C31.6007 34.408 30.8807 35.064 29.9367 35.544C29.0087 36.008 27.9047 36.24 26.6247 36.24Z" fill="#4D8AE4"/>
</svg>
