<svg width="159" height="53" viewBox="0 0 159 53" fill="none" xmlns="http://www.w3.org/2000/svg">
<path d="M6.59386 52.9176C10.2356 52.9176 13.1877 49.9251 13.1877 46.2337C13.1877 42.5423 10.2356 39.5498 6.59386 39.5498C2.95217 39.5498 0 42.5423 0 46.2337C0 49.9251 2.95217 52.9176 6.59386 52.9176Z" fill="#ECB602"/>
<path d="M41.6232 16.566C41.6238 16.2858 41.5424 16.0116 41.3892 15.7783C41.2361 15.5449 41.018 15.3629 40.7628 15.2552C40.5075 15.1475 40.2265 15.119 39.9552 15.1733C39.684 15.2276 39.4347 15.3622 39.239 15.5602C39.0433 15.7582 38.9099 16.0105 38.8557 16.2853C38.8015 16.5602 38.829 16.8451 38.9347 17.1041C39.0403 17.3631 39.2194 17.5845 39.4493 17.7403C39.6791 17.896 39.9494 17.9792 40.2259 17.9792C40.5957 17.9783 40.9501 17.8293 41.2119 17.5645C41.4737 17.2998 41.6215 16.9408 41.6232 16.566Z" fill="#863D80"/>
<path d="M51.8436 16.1654C51.2628 4.25859 41.8869 0.353291 37.2586 0.165506C27.9676 -0.206882 0.0629883 0.165506 0.0629883 0.165506C1.52306 10.5828 8.44975 13.1895 11.731 13.1895H35.5568C38.877 12.9931 42.1686 13.9103 44.9232 15.7994L45.5512 16.2227C45.5947 16.2556 45.6301 16.2984 45.6544 16.3475C45.6788 16.3967 45.6915 16.451 45.6915 16.506C45.6915 16.561 45.6788 16.6153 45.6544 16.6645C45.6301 16.7137 45.5947 16.7564 45.5512 16.7893L44.807 17.3081C42.2346 19.0652 39.1852 19.9643 36.0843 19.8798H11.731C3.98163 19.4692 3.14012 24.1893 5.08688 26.1181C7.30054 28.3206 31.4247 53 31.4247 53H47.0992L27.7698 33.2666C38.3513 34.0241 52.5752 31.0482 51.8436 16.1654ZM37.5193 12.7535C36.4965 12.6165 35.461 12.6069 34.4358 12.7248H34.3919C34.3647 12.7253 34.3378 12.7188 34.3136 12.706C34.2895 12.6932 34.2689 12.6745 34.2537 12.6516L33.497 10.7229C33.4718 10.6795 33.46 10.6294 33.4632 10.5792C33.4663 10.529 33.4843 10.4808 33.5147 10.4411C33.5452 10.4013 33.5867 10.3717 33.6339 10.3561C33.6811 10.3405 33.7319 10.3397 33.7796 10.3537L36.2539 10.9297C36.4594 10.981 36.6419 11.101 36.772 11.2703L37.6386 12.5721C37.6534 12.5911 37.6619 12.6143 37.6629 12.6385C37.6639 12.6627 37.6573 12.6866 37.644 12.7068C37.6308 12.7269 37.6116 12.7423 37.5891 12.7507C37.5667 12.7591 37.5423 12.7601 37.5193 12.7535ZM33.4719 22.2541L34.2255 20.3222C34.2426 20.2966 34.2677 20.2777 34.2968 20.2684C34.3259 20.2592 34.3572 20.2602 34.3856 20.2713H34.4327C35.4574 20.3783 36.4907 20.3677 37.513 20.2394C37.5361 20.2341 37.5602 20.2361 37.5822 20.2451C37.6042 20.2541 37.6229 20.2696 37.6359 20.2897C37.6489 20.3098 37.6555 20.3334 37.6548 20.3575C37.6542 20.3815 37.6463 20.4047 37.6323 20.424L36.7688 21.729C36.6346 21.895 36.4522 22.0142 36.2476 22.0695L33.7765 22.6424C33.7265 22.6546 33.6741 22.652 33.6255 22.635C33.577 22.6181 33.5342 22.5874 33.5022 22.5466C33.4702 22.5058 33.4504 22.4567 33.445 22.4048C33.4396 22.353 33.449 22.3008 33.4719 22.2541Z" fill="#863D80"/>
<path d="M69.8634 40.3608C69.8641 39.6023 69.7389 38.8491 69.4929 38.1328C69.2612 37.4413 68.8985 36.8024 68.4253 36.2518C67.9242 35.649 67.2993 35.1645 66.5942 34.8322C65.8892 34.4998 65.121 34.3276 64.3434 34.3276C63.5658 34.3276 62.7976 34.4998 62.0925 34.8322C61.3875 35.1645 60.7625 35.649 60.2615 36.2518C59.8144 36.8127 59.4689 37.4496 59.241 38.1328C58.8098 39.574 58.8098 41.1125 59.241 42.5537C59.4847 43.2681 59.8445 43.9361 60.3054 44.5302C60.778 45.1008 61.363 45.5648 62.023 45.8925C62.765 46.2345 63.5707 46.4114 64.3858 46.4114C65.2009 46.4114 66.0066 46.2345 66.7486 45.8925C67.4071 45.5638 67.9909 45.0999 68.463 44.5302C68.9233 43.9426 69.2695 43.272 69.4835 42.5537C69.7292 41.8491 69.8576 41.108 69.8634 40.3608ZM77.1857 40.3608C77.2097 42.1539 76.8621 43.9322 76.1652 45.5806C75.5145 47.0755 74.5688 48.4197 73.3864 49.5304C72.1897 50.6101 70.8056 51.4551 69.3045 52.0225C67.7201 52.6269 66.0394 52.9301 64.3465 52.9169C62.6531 52.9249 60.9723 52.6219 59.3854 52.0225C57.8843 51.4551 56.5002 50.6101 55.3035 49.5304C54.1442 48.4099 53.2157 47.0673 52.5718 45.5806C51.8749 43.9322 51.5273 42.1539 51.5513 40.3608C51.524 38.5817 51.8719 36.8173 52.5718 35.1855C53.2093 33.709 54.1391 32.3809 55.3035 31.2834C56.4945 30.2074 57.881 29.3771 59.3854 28.839C60.9809 28.2754 62.6602 27.9944 64.3497 28.0083C66.0384 27.9951 67.7164 28.2816 69.3076 28.8549C70.8121 29.393 72.1986 30.2233 73.3895 31.2993C74.577 32.3867 75.5241 33.7166 76.1684 35.2014C76.865 36.8285 77.2118 38.5873 77.1857 40.3608Z" fill="#FDFDFD"/>
<path d="M96.9582 36.3157C96.4888 35.7234 95.8842 35.2559 95.1967 34.9534C94.4865 34.6143 93.7116 34.4373 92.9265 34.4346C92.1691 34.4227 91.4204 34.6009 90.7474 34.9534C90.1013 35.2662 89.5318 35.7206 89.0801 36.2838C88.6031 36.8401 88.2258 37.4767 87.9654 38.1649C87.4714 39.6603 87.4714 41.2782 87.9654 42.7736C88.2024 43.4771 88.5642 44.1307 89.033 44.7023C89.5193 45.2335 90.1012 45.6656 90.7474 45.9755C91.4614 46.2976 92.2361 46.4584 93.0176 46.4465C93.7934 46.4464 94.5627 46.303 95.2878 46.0232C96.0056 45.7488 96.6438 45.2956 97.1435 44.7055L101.36 49.9253C100.297 50.922 99.0313 51.6705 97.6521 52.1183C96.1011 52.6566 94.4717 52.9266 92.8323 52.9172C91.0974 52.9315 89.3728 52.6452 87.7331 52.0705C86.2038 51.5669 84.7997 50.735 83.6163 49.6315C82.4329 48.5281 81.498 47.179 80.8755 45.6763C80.2049 44.0202 79.8737 42.2432 79.9021 40.4533C79.8765 38.6802 80.2077 36.9203 80.8755 35.2813C81.5143 33.8047 82.4451 32.4767 83.6103 31.3791C84.8024 30.2712 86.2054 29.422 87.7331 28.8838C89.3517 28.2874 91.063 27.9909 92.7852 28.0086C93.6093 28.0064 94.4316 28.0853 95.2407 28.2441C96.0461 28.3923 96.8373 28.6117 97.605 28.8997C98.3406 29.1336 99.0418 29.4666 99.6899 29.8896C100.3 30.2363 100.862 30.6645 101.36 31.1627L96.9582 36.3157Z" fill="#FDFDFD"/>
<path d="M129.372 52.9175H119.767L112.052 41.4404H111.911V52.9175H104.102V16.6113H111.911V38.7031H112.052L119.578 29.002H128.995L119.908 39.8076L129.372 52.9175Z" fill="#FDFDFD"/>
<path d="M131.723 52.9175V28.9956H139.485V52.9175H131.723ZM140.041 21.3569C140.035 21.9332 139.914 22.5024 139.686 23.0306C139.459 23.5587 139.129 24.0351 138.716 24.4314C138.309 24.8328 137.825 25.1439 137.293 25.3449C136.754 25.5699 136.175 25.6846 135.592 25.6823C135.007 25.6979 134.426 25.5953 133.882 25.3805C133.337 25.1658 132.84 24.8431 132.42 24.4314C132.011 24.0348 131.687 23.5573 131.467 23.0285C131.247 22.4996 131.137 21.9307 131.142 21.3569C131.145 20.7976 131.261 20.245 131.485 19.7336C131.693 19.2042 132.015 18.7282 132.427 18.3396C132.842 17.9524 133.323 17.6441 133.846 17.4293C134.394 17.1694 134.993 17.0378 135.598 17.0442C136.182 17.0404 136.76 17.1551 137.3 17.3815C137.831 17.5816 138.315 17.8916 138.722 18.2918C139.133 18.6811 139.454 19.157 139.664 19.6859C139.917 20.2051 140.047 20.7776 140.041 21.3569Z" fill="#FDFDFD"/>
<path d="M153.58 34.53V43.4641C153.58 44.5622 153.778 45.3929 154.18 45.9562C154.582 46.5196 155.37 46.7551 156.453 46.7551C156.841 46.7548 157.229 46.724 157.612 46.6628C157.978 46.6178 158.336 46.5225 158.676 46.3796L158.771 52.0227C158.122 52.241 157.454 52.3987 156.777 52.4937C155.982 52.6493 155.175 52.7282 154.365 52.7292C153.047 52.7636 151.731 52.5731 150.475 52.1659C149.506 51.8121 148.632 51.2321 147.925 50.4726C147.297 49.7011 146.839 48.8027 146.581 47.8373C146.292 46.7176 146.151 45.5637 146.164 44.4062V34.5395H142.456V28.7436H146.117V22.5977H153.58V28.7436H159V34.53H153.58Z" fill="#FDFDFD"/>
</svg>
