<svg width="26" height="26" viewBox="0 0 26 26" fill="none" xmlns="http://www.w3.org/2000/svg">
<g clip-path="url(#clip0_3877_2093)">
<path d="M5.09769 0.00683594C2.29704 0.00683594 0.00488281 2.29894 0.00488281 5.09964V20.9035C0.00488281 23.7041 2.29699 25.9955 5.09769 25.9955H20.9016C23.7022 25.9955 25.9935 23.7042 25.9935 20.9035V5.09964C25.9935 2.299 23.7022 0.00683594 20.9016 0.00683594H5.09769ZM6.37861 4.29548C7.72145 4.29548 8.54859 5.17704 8.57413 6.33583C8.57413 7.46904 7.7214 8.37538 6.35263 8.37538H6.32744C5.01015 8.37538 4.15872 7.4691 4.15872 6.33583C4.15872 5.17707 5.03591 4.29548 6.37858 4.29548H6.37861ZM17.9507 9.71154C20.5332 9.71154 22.4692 11.3995 22.4692 15.0269V21.7986H18.5445V15.4809C18.5445 13.8933 17.9764 12.8102 16.5561 12.8102C15.4718 12.8102 14.8255 13.5403 14.5417 14.2455C14.438 14.4978 14.4126 14.8502 14.4126 15.2031V21.7986H10.4878C10.4878 21.7986 10.5393 11.0966 10.4878 9.9885H14.4134V11.6609C14.9349 10.8562 15.8679 9.71152 17.9507 9.71152V9.71154ZM4.39023 9.98936H8.31501V21.7986H4.39023V9.98936Z" fill="#8F99A1"/>
</g>
<defs>
<clipPath id="clip0_3877_2093">
<rect width="26" height="26" fill="white"/>
</clipPath>
</defs>
</svg>
