<svg width="14" height="21" viewBox="0 0 14 21" fill="none" xmlns="http://www.w3.org/2000/svg">
<path d="M13.9792 7.88708C14.0535 6.92912 13.9283 5.9662 13.6113 5.05873C13.2943 4.15126 12.7923 3.31883 12.137 2.61372C11.4816 1.90862 10.687 1.34605 9.80303 0.961304C8.91903 0.576558 7.96472 0.37793 7 0.37793C6.03527 0.37793 5.08097 0.576558 4.19696 0.961304C3.31296 1.34605 2.51835 1.90862 1.86301 2.61372C1.20767 3.31883 0.705766 4.15126 0.388757 5.05873C0.0717475 5.9662 -0.0535451 6.92912 0.0208298 7.88708C0.0121464 9.26095 0.418644 10.6056 1.18749 11.7464L6.97921 20.3779L12.8125 11.7049C13.5734 10.5759 13.9795 9.24683 13.9792 7.88708ZM6.97921 11.7464C6.2028 11.7463 5.44388 11.5165 4.79892 11.086C4.15396 10.6555 3.65202 10.0438 3.35684 9.32858C3.06166 8.61338 2.98659 7.82696 3.14112 7.06916C3.29565 6.31137 3.67282 5.61645 4.22475 5.0726C4.77668 4.52875 5.47846 4.16055 6.24094 4.01476C7.00342 3.86897 7.79221 3.95212 8.50712 4.25373C9.22203 4.55535 9.83077 5.0618 10.2561 5.70872C10.6814 6.35564 10.9041 7.11386 10.8958 7.88708C10.896 8.89641 10.4993 9.86566 9.79051 10.5871C9.08173 11.3085 8.1174 11.7246 7.1042 11.7464H6.97921Z" fill="#8F99A2"/>
</svg>
