<svg width="56" height="56" viewBox="0 0 56 56" fill="none" xmlns="http://www.w3.org/2000/svg">
<g clip-path="url(#clip0_368_3520)">
<path d="M30.7985 37.3899C31.6676 38.2984 33.1887 39.8985 35.5391 42.3481C37.9489 38.8915 38.2453 33.9926 38.186 31.1091L30.7985 37.3899ZM35.618 45.5872C35.2625 45.5872 34.9265 45.4489 34.6894 45.1922C29.8499 40.1156 27.9929 38.1996 27.9929 38.1797C27.7558 37.9231 27.6175 37.5872 27.6375 37.2317C27.6574 36.8762 27.8152 36.5403 28.0918 36.3231L48.2598 19.2171C48.5363 18.98 54.7387 13.6663 52.6055 3.35508C42.2945 1.22188 36.9415 7.38479 36.7235 7.66129L19.6375 27.8493C19.4004 28.1258 19.0844 28.2837 18.7289 28.3036C18.3734 28.3235 18.0375 28.1852 17.7808 27.9481C17.7609 27.9282 15.8054 26.0516 10.7683 21.2516C10.5117 21.0145 10.3734 20.659 10.3734 20.3231C10.3734 19.9872 10.5316 19.6317 10.7883 19.3946C15.9043 14.654 24.5363 15.0688 26.9263 15.3055L34.788 6.04138C35.0446 5.72536 41.6027 -1.93873 54.0079 1.06367C54.4822 1.18203 54.8376 1.53789 54.956 2.01172C57.9583 14.4367 50.2744 20.9347 49.9388 21.2117L40.6943 29.0535C40.9115 31.4437 41.3462 40.0755 36.6052 45.1915C36.3286 45.4294 35.9927 45.5677 35.6173 45.5872C35.6173 45.5872 35.6372 45.5872 35.6173 45.5872L35.618 45.5872ZM13.593 20.4021C16.0422 22.733 17.6422 24.2736 18.5512 25.1427L24.8129 17.7353C21.9484 17.6764 17.0496 17.9924 13.5929 20.4021H13.593ZM44.902 15.3654C42.4922 15.3654 40.5364 13.4099 40.5364 10.9998C40.5364 8.59005 42.4919 6.63425 44.902 6.63425C47.3118 6.63425 49.2676 8.58975 49.2676 10.9998C49.2676 13.4096 47.3117 15.3654 44.902 15.3654ZM44.902 9.20215C43.9145 9.20215 43.1043 10.0119 43.1043 10.9998C43.1043 11.9873 43.914 12.7975 44.902 12.7975C45.8895 12.7975 46.6997 11.9878 46.6997 10.9998C46.6997 10.0123 45.8899 9.20215 44.902 9.20215ZM12.053 44.4222C11.717 44.4222 11.3815 44.2839 11.1244 44.0272C10.7491 43.6518 10.6701 43.0792 10.8873 42.6049L16.3393 30.8319C16.5171 30.4565 16.8725 30.18 17.2874 30.1011C17.7022 30.0222 18.1171 30.1604 18.4132 30.4565L25.1292 37.1725C25.4257 37.469 25.5636 37.9034 25.4847 38.3381C25.4057 38.753 25.1093 39.1085 24.7143 39.2667L12.5463 44.3233C12.369 44.3822 12.2108 44.4217 12.053 44.4217L12.053 44.4222ZM17.88 33.5772L14.5812 40.6881L21.9292 37.6264L17.88 33.5772Z" fill="#E2E2E2"/>
</g>
<path d="M5.96479 55.1428L21.2047 55.0955C24.4735 55.0854 27.1189 52.4272 27.1133 49.1584L27.0874 33.9185C27.0818 30.6496 24.4274 28.008 21.1586 28.0181L5.91868 28.0654C2.64988 28.0755 0.00450308 30.7337 0.0100694 34.0025L0.036021 49.2425C0.0415873 52.5113 2.69599 55.153 5.96479 55.1428Z" fill="url(#paint0_linear_368_3520)" fill-opacity="0.1"/>
<defs>
<linearGradient id="paint0_linear_368_3520" x1="-1.0882" y1="56.3042" x2="22.1501" y2="33.0061" gradientUnits="userSpaceOnUse">
<stop stop-color="#EDD600"/>
<stop offset="0.34375" stop-color="#FFE703"/>
<stop offset="0.557292" stop-color="#FFBB97"/>
<stop offset="0.760417" stop-color="#DE77B5"/>
<stop offset="1" stop-color="#DD1C90"/>
</linearGradient>
<clipPath id="clip0_368_3520">
<rect width="46" height="46" fill="white" transform="translate(10.0004)"/>
</clipPath>
</defs>
</svg>
