<svg width="62" height="51" viewBox="0 0 62 51" fill="none" xmlns="http://www.w3.org/2000/svg">
<path d="M31.4077 8.59919L45.3324 2.40545C48.319 1.07696 51.8206 2.41968 53.1533 5.4045L59.3665 19.3204C60.6992 22.3053 59.3583 25.8019 56.3716 27.1304L42.447 33.3241C39.4603 34.6526 35.9588 33.3099 34.6261 30.3251L28.4129 16.4091C27.0802 13.4243 28.4211 9.92768 31.4077 8.59919Z" fill="url(#paint0_linear_368_3532)" fill-opacity="0.1"/>
<g clip-path="url(#clip0_368_3532)">
<path d="M41.2598 10.6283C39.6371 9.17587 37.4574 8.4804 35.2732 8.72327C31.7653 9.1118 28.9282 11.9392 28.5283 15.446C28.2076 18.2592 29.4452 21.0111 31.7581 22.6272C31.9394 22.7538 32.058 22.9555 32.084 23.1801L32.4168 26.0383C32.4905 26.6742 33.0282 27.1534 33.6686 27.1534H38.6234C39.2624 27.1534 39.8004 26.6746 39.8752 26.039L40.2073 23.1798C40.2329 22.9556 40.3561 22.7515 40.5443 22.619C42.5918 21.1828 43.8142 18.8364 43.8142 16.3426C43.8145 14.1653 42.8835 12.0821 41.2598 10.6283L41.2598 10.6283ZM38.4206 25.6659H33.8717L33.8166 25.1933H38.4753L38.4206 25.6659ZM38.5905 24.2014H33.7014L33.6305 23.5907H38.6618L38.5905 24.2014ZM39.6896 21.4021C39.271 21.6962 38.971 22.12 38.8219 22.5989L33.4703 22.5985C33.3222 22.1193 33.025 21.6976 32.6108 21.408C30.7456 20.1047 29.7482 17.8849 30.007 15.6149C30.3295 12.7914 32.613 10.5152 35.4372 10.2024C37.2284 10.0035 38.9407 10.5498 40.2668 11.7375C41.5756 12.9093 42.3264 14.5885 42.3264 16.3436C42.3264 18.3531 41.3407 20.2439 39.6896 21.4022V21.4021ZM35.4019 6.11909V4.08956C35.4019 3.67854 35.7351 3.3457 36.1458 3.3457C36.5564 3.3457 36.8896 3.67854 36.8896 4.08956L36.89 6.11909C36.89 6.53011 36.5568 6.86295 36.1461 6.86295C35.7351 6.86329 35.4019 6.53011 35.4019 6.11909ZM29.5451 5.95025C29.3396 5.59459 29.4614 5.13928 29.8174 4.93407C30.1731 4.72856 30.6284 4.84965 30.8336 5.20636L31.8487 6.96433C32.0542 7.31999 31.9324 7.7753 31.5764 7.9805C31.4591 8.04832 31.3315 8.08049 31.2048 8.08049C30.9481 8.08049 30.6976 7.94695 30.5603 7.70822L29.5451 5.95025ZM40.4429 6.96431L41.4577 5.20634C41.6632 4.85033 42.1189 4.72854 42.4739 4.93405C42.8299 5.13957 42.9513 5.59453 42.7462 5.95024L41.7314 7.7082C41.5937 7.94658 41.3436 8.08048 41.0868 8.08048C40.9606 8.08048 40.8326 8.0483 40.7153 7.98049C40.3593 7.77498 40.2375 7.32001 40.443 6.96431H40.4429ZM25.1316 9.47407C25.3371 9.11806 25.7924 8.99627 26.1478 9.20178L27.9057 10.2165C28.2618 10.4221 28.3832 10.877 28.178 11.2327C28.0403 11.4711 27.7902 11.605 27.5335 11.605C27.4072 11.605 27.2792 11.5728 27.1619 11.505L25.4039 10.4902C25.0476 10.2847 24.9261 9.82977 25.1316 9.47407H25.1316ZM46.8883 10.4902L45.1303 11.505C45.013 11.5728 44.8854 11.605 44.7587 11.605C44.502 11.605 44.2515 11.4715 44.1142 11.2327C43.9087 10.8771 44.0304 10.4217 44.3865 10.2165L46.1444 9.20178C46.5001 8.99627 46.9554 9.11805 47.1606 9.47407C47.3661 9.82974 47.2443 10.2847 46.8883 10.4902H46.8883ZM28.1971 23.977C27.449 23.6355 26.5861 23.6252 25.8305 23.9487L12.8034 29.5266L13.6469 26.6754C14.0922 25.1708 13.3871 23.5837 12.0063 22.9824C11.2379 22.6475 10.393 22.6427 9.62703 22.9682C8.87141 23.2893 8.27455 23.9145 8.00511 24.6428L3.91072 33.9206C3.8346 34.0933 3.71766 34.249 3.57304 34.3704L1.71853 35.9253C0.789949 36.7037 0.486503 37.9753 0.963602 39.0893L5.03612 48.601C5.56962 49.8472 6.95803 50.5171 8.26623 50.1583L20.5511 46.786C20.6286 46.7649 20.7037 46.7386 20.7767 46.7075L23.0297 45.7428C24.4483 45.1353 25.2052 43.5503 24.7527 42.1339C24.5258 41.4198 24.0393 40.8299 23.3989 40.469C24.0241 39.7124 24.268 38.6816 23.9629 37.7278C23.7362 37.0182 23.2498 36.4245 22.6094 36.0633C23.2346 35.3066 23.4782 34.2759 23.173 33.3225C22.989 32.7454 22.6319 32.2447 22.1606 31.8832L28.0468 29.3627C29.466 28.7551 30.2227 27.1702 29.7702 25.7538C29.5197 24.9642 28.9453 24.3186 28.1977 23.9768L28.1971 23.977ZM27.4608 27.9945L16.6684 32.6151C16.2909 32.7767 16.1155 33.2144 16.2774 33.5918C16.439 33.9693 16.8767 34.1447 17.2541 33.9828L19.8189 32.8847C20.1901 32.7259 20.6143 32.7314 20.9817 32.8988C21.3543 33.0691 21.6294 33.3805 21.7553 33.7742C21.9771 34.4679 21.5858 35.2536 20.8641 35.5625L18.3855 36.6236C18.0081 36.7852 17.8327 37.2229 17.9946 37.6003C18.1561 37.9778 18.5938 38.1532 18.9713 37.9913L20.6095 37.2899C20.9807 37.1308 21.4045 37.136 21.7723 37.3041C22.1443 37.474 22.4172 37.7826 22.5453 38.1791C22.767 38.8728 22.3754 39.6585 21.6537 39.9678L20.1019 40.6321C19.7245 40.7937 19.549 41.2313 19.711 41.6088C19.8725 41.9863 20.3102 42.1617 20.6876 41.9997L21.399 41.6953C21.7702 41.5361 22.194 41.5413 22.5615 41.7091C22.9341 41.8793 23.2085 42.1876 23.3351 42.5851C23.5569 43.2788 23.1652 44.0642 22.4439 44.3732L20.159 45.3489L7.87238 48.7216C7.27833 48.8849 6.6469 48.5807 6.40439 48.014L2.33082 38.5032C2.11423 37.9971 2.25193 37.4189 2.67403 37.065L4.52881 35.5105C4.84676 35.2437 5.10383 34.9019 5.27163 34.521L9.38294 25.2024C9.52894 24.809 9.82233 24.5017 10.2088 24.3377C10.5949 24.1734 11.0219 24.1769 11.4118 24.3467C11.7512 24.4941 12.0089 24.7754 12.1546 25.1159C12.302 25.4601 12.3345 25.8646 12.2193 26.2531L10.9267 30.6229C10.8447 30.9 10.9308 31.1986 11.1457 31.3896C11.3612 31.5812 11.6681 31.6311 11.9331 31.5176L26.4155 25.3165C26.7867 25.1577 27.2102 25.1626 27.5783 25.3307C27.9509 25.5006 28.2239 25.8102 28.3519 26.206C28.5737 26.9008 28.1821 27.6862 27.4604 27.9951L27.4608 27.9945Z" fill="#E2E2E2"/>
</g>
<defs>
<linearGradient id="paint0_linear_368_3532" x1="24.4971" y1="10.4259" x2="55.235" y2="22.1734" gradientUnits="userSpaceOnUse">
<stop stop-color="#EDD600"/>
<stop offset="0.34375" stop-color="#FFE703"/>
<stop offset="0.557292" stop-color="#FFBB97"/>
<stop offset="0.760417" stop-color="#DE77B5"/>
<stop offset="1" stop-color="#DD1C90"/>
</linearGradient>
<clipPath id="clip0_368_3532">
<rect width="48" height="48" fill="white" transform="translate(0 3)"/>
</clipPath>
</defs>
</svg>
