<svg width="19" height="20" viewBox="0 0 19 20" fill="none" xmlns="http://www.w3.org/2000/svg">
<path d="M7.0831 5.90068C8.23172 4.58199 7.08311 2.88651 6.26951 1.75621C5.45591 0.625904 5.21659 0.154967 4.30727 0.0136786C3.39795 -0.127609 2.72794 0.861401 2.15364 1.33236C1.48666 1.93088 0.951419 2.65759 0.581002 3.46762C0.210586 4.27764 0.012877 5.15379 0 6.04196V6.27738C0.122062 8.33774 0.81742 10.3254 2.01007 12.0231C3.20125 13.7654 4.61686 15.3485 6.2216 16.7327C7.7537 18.2178 9.64951 19.2884 11.7254 19.8411C12.699 20.0586 13.7104 20.0528 14.6814 19.8241C15.6524 19.5954 16.5569 19.1501 17.3249 18.5224C17.8992 18.0985 18.9521 17.4392 19 16.6386C18.9609 16.2543 18.8381 15.8829 18.6398 15.5497C18.4416 15.2165 18.1727 14.9292 17.8514 14.7076C16.6549 13.6715 14.932 11.9289 13.0655 13.2005C12.4433 13.7186 11.7733 14.6605 10.9118 14.7547C10.4955 14.7588 10.0824 14.6819 9.69637 14.5283C9.31034 14.3747 8.95895 14.1475 8.66245 13.8598C7.26062 12.721 6.09128 11.3306 5.21661 9.76251C5.01955 9.41735 4.91603 9.02808 4.91603 8.63218C4.91603 8.23628 5.01955 7.84708 5.21661 7.50192C5.74305 6.84258 6.55665 6.51293 7.0831 5.90068Z" fill="#8F99A2"/>
</svg>
