<svg width="135" height="45" viewBox="0 0 135 45" fill="none" xmlns="http://www.w3.org/2000/svg">
<g clip-path="url(#clip0_244_7521)">
<path d="M5.59856 44.9297C8.69056 44.9297 11.1971 42.3889 11.1971 39.2547C11.1971 36.1205 8.69056 33.5797 5.59856 33.5797C2.50656 33.5797 0 36.1205 0 39.2547C0 42.3889 2.50656 44.9297 5.59856 44.9297Z" fill="#ECB602"/>
<path d="M35.3405 14.0659C35.341 13.8279 35.2719 13.5951 35.1419 13.397C35.0118 13.1989 34.8267 13.0443 34.61 12.9529C34.3933 12.8615 34.1546 12.8373 33.9243 12.8834C33.694 12.9295 33.4824 13.0438 33.3162 13.2119C33.15 13.3799 33.0368 13.5942 32.9908 13.8276C32.9448 14.0609 32.9681 14.3028 33.0578 14.5227C33.1475 14.7426 33.2996 14.9306 33.4948 15.0629C33.6899 15.1951 33.9194 15.2657 34.1541 15.2657C34.4681 15.265 34.7691 15.1384 34.9913 14.9137C35.2136 14.6889 35.3391 14.3841 35.3405 14.0659Z" fill="#863D80"/>
<path d="M44.0184 13.7254C43.5252 3.61578 35.5646 0.299964 31.6349 0.140524C23.7463 -0.175655 0.0537109 0.140524 0.0537109 0.140524C1.29339 8.98541 7.17455 11.1987 9.9605 11.1987H30.19C33.009 11.0319 35.8038 11.8106 38.1426 13.4146L38.6758 13.774C38.7127 13.8019 38.7428 13.8382 38.7634 13.88C38.7841 13.9217 38.7949 13.9678 38.7949 14.0145C38.7949 14.0613 38.7841 14.1073 38.7634 14.1491C38.7428 14.1908 38.7127 14.2271 38.6758 14.255L38.0439 14.6955C35.8598 16.1874 33.2706 16.9508 30.6379 16.8791H9.9605C3.38086 16.5304 2.66637 20.5381 4.31928 22.1757C6.1988 24.0458 26.6815 45 26.6815 45H39.9901L23.5783 28.2453C32.5627 28.8884 44.6396 26.3617 44.0184 13.7254ZM31.8562 10.8284C30.9878 10.7121 30.1086 10.704 29.2382 10.8041H29.2009C29.1778 10.8045 29.1549 10.799 29.1344 10.7881C29.114 10.7773 29.0965 10.7614 29.0836 10.742L28.4411 9.10431C28.4197 9.06749 28.4097 9.025 28.4123 8.98234C28.415 8.93969 28.4303 8.89883 28.4561 8.86506C28.482 8.83129 28.5172 8.80616 28.5573 8.79293C28.5974 8.77969 28.6405 8.77897 28.681 8.79084L30.7818 9.27997C30.9563 9.32351 31.1113 9.42537 31.2217 9.56912L31.9575 10.6744C31.9701 10.6905 31.9773 10.7103 31.9782 10.7308C31.979 10.7514 31.9734 10.7717 31.9621 10.7888C31.9509 10.8059 31.9346 10.8189 31.9155 10.8261C31.8965 10.8332 31.8757 10.834 31.8562 10.8284ZM28.4198 18.895L29.0596 17.2547C29.0741 17.233 29.0955 17.2169 29.1201 17.209C29.1448 17.2012 29.1714 17.202 29.1956 17.2114H29.2355C30.1055 17.3024 30.9829 17.2933 31.8509 17.1844C31.8705 17.1799 31.891 17.1816 31.9096 17.1892C31.9283 17.1968 31.9442 17.2101 31.9552 17.2271C31.9662 17.2442 31.9719 17.2642 31.9713 17.2846C31.9708 17.305 31.9641 17.3247 31.9522 17.3412L31.219 18.4491C31.105 18.5901 30.9502 18.6913 30.7765 18.7383L28.6784 19.2247C28.6359 19.235 28.5915 19.2328 28.5502 19.2184C28.509 19.204 28.4726 19.178 28.4455 19.1433C28.4183 19.1087 28.4015 19.067 28.3969 19.023C28.3924 18.979 28.4003 18.9346 28.4198 18.895Z" fill="#863D80"/>
<path d="M59.3178 34.2689C59.3185 33.6249 59.2121 32.9854 59.0033 32.3772C58.8065 31.7901 58.4986 31.2476 58.0968 30.7801C57.6714 30.2683 57.1408 29.857 56.5421 29.5748C55.9435 29.2926 55.2913 29.1464 54.631 29.1464C53.9708 29.1464 53.3186 29.2926 52.7199 29.5748C52.1213 29.857 51.5907 30.2683 51.1653 30.7801C50.7856 31.2564 50.4923 31.7971 50.2988 32.3772C49.9327 33.6009 49.9327 34.9071 50.2988 36.1308C50.5057 36.7373 50.8112 37.3045 51.2026 37.809C51.6038 38.2934 52.1005 38.6874 52.6609 38.9656C53.2909 39.256 53.9749 39.4062 54.667 39.4062C55.3591 39.4062 56.0432 39.256 56.6732 38.9656C57.2323 38.6866 57.728 38.2927 58.1288 37.809C58.5196 37.3101 58.8136 36.7407 58.9952 36.1308C59.2039 35.5326 59.3129 34.9033 59.3178 34.2689ZM65.5349 34.2689C65.5553 35.7914 65.2601 37.3012 64.6685 38.7008C64.1159 39.9701 63.313 41.1114 62.3091 42.0544C61.293 42.9711 60.1178 43.6886 58.8433 44.1704C57.498 44.6835 56.071 44.9409 54.6337 44.9298C53.1959 44.9366 51.7688 44.6793 50.4215 44.1704C49.1469 43.6886 47.9717 42.9711 46.9557 42.0544C45.9713 41.103 45.183 39.9631 44.6363 38.7008C44.0446 37.3012 43.7494 35.7914 43.7698 34.2689C43.7466 32.7583 44.042 31.2602 44.6363 29.8748C45.1776 28.6212 45.967 27.4935 46.9557 26.5617C47.9669 25.6481 49.1441 24.9431 50.4215 24.4863C51.7761 24.0077 53.2019 23.7692 54.6364 23.7809C56.0702 23.7697 57.4949 24.013 58.846 24.4998C60.1233 24.9566 61.3006 25.6616 62.3117 26.5752C63.32 27.4985 64.1241 28.6276 64.6711 29.8883C65.2626 31.2698 65.557 32.7631 65.5349 34.2689Z" fill="#0C1E30"/>
<path d="M82.3229 30.8341C81.9243 30.3313 81.411 29.9343 80.8273 29.6775C80.2243 29.3896 79.5663 29.2392 78.8998 29.237C78.2566 29.2268 77.621 29.3782 77.0496 29.6775C76.501 29.9431 76.0174 30.3289 75.6339 30.8071C75.2289 31.2794 74.9086 31.8199 74.6875 32.4042C74.2681 33.6739 74.2681 35.0475 74.6875 36.3172C74.8887 36.9145 75.1959 37.4695 75.5939 37.9549C76.0068 38.4058 76.5009 38.7727 77.0496 39.0358C77.6558 39.3094 78.3136 39.4458 78.9771 39.4358C79.6358 39.4357 80.289 39.3139 80.9046 39.0764C81.5141 38.8434 82.0559 38.4586 82.4802 37.9576L86.0606 42.3895C85.1578 43.2357 84.0831 43.8712 82.9121 44.2514C81.5951 44.7085 80.2118 44.9378 78.8198 44.9297C77.3467 44.9419 75.8825 44.6988 74.4902 44.2109C73.1918 43.7832 71.9996 43.0769 70.9949 42.14C69.9901 41.2031 69.1963 40.0577 68.6677 38.7818C68.0984 37.3757 67.8172 35.8669 67.8413 34.3472C67.8195 32.8417 68.1007 31.3475 68.6677 29.9558C69.2102 28.7022 70.0005 27.5746 70.9898 26.6427C72.0019 25.702 73.1931 24.981 74.4902 24.5241C75.8646 24.0176 77.3176 23.7659 78.7798 23.7809C79.4795 23.7791 80.1777 23.846 80.8646 23.9809C81.5485 24.1067 82.2202 24.293 82.8721 24.5376C83.4966 24.7362 84.092 25.0188 84.6423 25.378C85.1607 25.6724 85.6377 26.0359 86.0606 26.459L82.3229 30.8341Z" fill="#0C1E30"/>
<path d="M109.844 44.9298H101.688L95.138 35.185H95.018V44.9298H88.3877V14.1038H95.018V32.861H95.138L101.528 24.6241H109.524L101.808 33.7987L109.844 44.9298Z" fill="#0C1E30"/>
<path d="M111.841 44.9296V24.6186H118.431V44.9296H111.841ZM118.903 18.1329C118.898 18.6222 118.796 19.1055 118.602 19.5539C118.409 20.0024 118.129 20.4069 117.778 20.7434C117.433 21.0841 117.022 21.3483 116.571 21.5189C116.112 21.71 115.621 21.8073 115.126 21.8054C114.63 21.8186 114.136 21.7315 113.674 21.5492C113.211 21.3668 112.79 21.0929 112.433 20.7434C112.086 20.4066 111.81 20.0012 111.623 19.5521C111.437 19.1031 111.343 18.6201 111.348 18.1329C111.35 17.658 111.449 17.1888 111.638 16.7546C111.816 16.3052 112.089 15.901 112.438 15.571C112.791 15.2423 113.199 14.9805 113.643 14.7981C114.109 14.5775 114.617 14.4658 115.131 14.4711C115.627 14.4679 116.118 14.5653 116.576 14.7576C117.027 14.9274 117.438 15.1906 117.784 15.5305C118.132 15.861 118.405 16.265 118.583 16.7141C118.798 17.155 118.908 17.641 118.903 18.1329Z" fill="#0C1E30"/>
<path d="M130.399 29.318V36.9036C130.399 37.8359 130.567 38.5412 130.908 39.0195C131.249 39.4978 131.918 39.6978 132.838 39.6978C133.167 39.6976 133.496 39.6714 133.822 39.6195C134.132 39.5812 134.436 39.5003 134.726 39.3789L134.806 44.1703C134.254 44.3557 133.688 44.4895 133.113 44.5702C132.438 44.7023 131.752 44.7693 131.065 44.7702C129.945 44.7993 128.829 44.6376 127.762 44.2919C126.939 43.9915 126.198 43.499 125.597 42.8542C125.064 42.1991 124.675 41.4363 124.456 40.6166C124.21 39.666 124.091 38.6862 124.102 37.7035V29.3261H120.953V24.4051H124.062V19.1868H130.399V24.4051H135V29.318H130.399Z" fill="#0C1E30"/>
</g>
<defs>
<clipPath id="clip0_244_7521">
<rect width="135" height="45" fill="white"/>
</clipPath>
</defs>
</svg>
