<svg width="54" height="54" viewBox="0 0 54 54" fill="none" xmlns="http://www.w3.org/2000/svg">
<rect width="54" height="54" rx="14" fill="#FAF4FF"/>
<path d="M27.1627 36.24C25.9947 36.24 24.8747 36.072 23.8027 35.736C22.7307 35.384 21.8507 34.904 21.1627 34.296L22.1707 31.968C22.9227 32.544 23.6987 32.968 24.4987 33.24C25.3147 33.512 26.1707 33.648 27.0667 33.648C28.1547 33.648 28.9787 33.432 29.5387 33C30.0987 32.568 30.3787 31.936 30.3787 31.104C30.3787 30.304 30.0987 29.704 29.5387 29.304C28.9947 28.888 28.1947 28.68 27.1387 28.68H24.4027V26.208H26.8747C27.7867 26.208 28.5147 25.984 29.0587 25.536C29.6027 25.088 29.8747 24.472 29.8747 23.688C29.8747 22.952 29.6187 22.392 29.1067 22.008C28.6107 21.624 27.8907 21.432 26.9467 21.432C25.2507 21.432 23.7547 22.008 22.4587 23.16L21.4507 20.856C22.1387 20.216 22.9867 19.72 23.9947 19.368C25.0187 19.016 26.0907 18.84 27.2107 18.84C28.9707 18.84 30.3467 19.24 31.3387 20.04C32.3467 20.824 32.8507 21.92 32.8507 23.328C32.8507 24.336 32.5627 25.208 31.9867 25.944C31.4267 26.664 30.6507 27.144 29.6587 27.384V27.096C30.8267 27.288 31.7307 27.768 32.3707 28.536C33.0267 29.288 33.3547 30.232 33.3547 31.368C33.3547 32.872 32.8027 34.064 31.6987 34.944C30.5947 35.808 29.0827 36.24 27.1627 36.24Z" fill="#C986FF"/>
</svg>
