<svg width="54" height="54" viewBox="0 0 54 54" fill="none" xmlns="http://www.w3.org/2000/svg">
<rect width="54" height="54" rx="14" fill="#EEF5FF"/>
<path d="M21.1767 36V33.72L26.7927 27.864C27.4967 27.128 28.0167 26.448 28.3527 25.824C28.6887 25.2 28.8567 24.56 28.8567 23.904C28.8567 23.088 28.6007 22.472 28.0887 22.056C27.5767 21.64 26.8327 21.432 25.8567 21.432C25.0727 21.432 24.3207 21.576 23.6007 21.864C22.8807 22.136 22.1767 22.568 21.4887 23.16L20.4807 20.856C21.1687 20.248 22.0167 19.76 23.0247 19.392C24.0487 19.024 25.1207 18.84 26.2407 18.84C28.0647 18.84 29.4647 19.248 30.4407 20.064C31.4167 20.88 31.9047 22.048 31.9047 23.568C31.9047 24.624 31.6567 25.632 31.1607 26.592C30.6647 27.536 29.8967 28.528 28.8567 29.568L24.1767 34.248V33.432H32.5767V36H21.1767Z" fill="#4D8AE4"/>
</svg>
